<svg xmlns="http://www.w3.org/2000/svg" width="47.719" height="291.375" viewBox="0 0 47.719 291.375">
  <metadata><?xpacket begin="﻿" id="W5M0MpCehiHzreSzNTczkc9d"?>
<x:xmpmeta xmlns:x="adobe:ns:meta/" x:xmptk="Adobe XMP Core 5.6-c138 79.159824, 2016/09/14-01:09:01        ">
   <rdf:RDF xmlns:rdf="http://www.w3.org/1999/02/22-rdf-syntax-ns#">
      <rdf:Description rdf:about=""/>
   </rdf:RDF>
</x:xmpmeta>
                                                                                                    
                                                                                                    
                                                                                                    
                                                                                                    
                                                                                                    
                                                                                                    
                                                                                                    
                                                                                                    
                                                                                                    
                                                                                                    
                                                                                                    
                                                                                                    
                                                                                                    
                                                                                                    
                                                                                                    
                                                                                                    
                                                                                                    
                                                                                                    
                                                                                                    
                                                                                                    
                           
<?xpacket end="w"?></metadata>
<defs>
    <style>
      .cls-1 {
        fill: #323232;
        fill-rule: evenodd;
      }
    </style>
  </defs>
  <path id="Мороженко" class="cls-1" d="M26.023,287.333a6.815,6.815,0,0,1-6.823-6.774,8.055,8.055,0,0,1,1.822-4.6V261.115a5,5,0,0,1,10,0v14.91a7.652,7.652,0,0,1,1.777,4.534A6.775,6.775,0,0,1,26.023,287.333Zm0-2a4.8,4.8,0,0,1-4.8-4.774,5.246,5.246,0,0,1,1.846-3.779V261.115a3,3,0,0,1,6,0v15.729a5.077,5.077,0,0,1,1.754,3.715A4.8,4.8,0,0,1,26.023,285.333Zm2.706-4.915a2.774,2.774,0,1,1-3.675-2.611V260.975a0.949,0.949,0,1,1,1.9,0v16.861A2.77,2.77,0,0,1,28.729,280.418ZM34,264h4a1,1,0,1,1,0,2H34A1,1,0,1,1,34,264Zm0-4h4a1,1,0,1,1,0,2H34A1,1,0,1,1,34,260Zm0,8h4a1,1,0,1,1,0,2H34A1,1,0,1,1,34,268Zm0,4h4a1,1,0,1,1,0,2H34A1,1,0,1,1,34,272Zm-7.817-23.2a23.7,23.7,0,1,1-23.7,23.7A23.7,23.7,0,0,1,26.183,248.8Zm0,45.4a21.7,21.7,0,1,1,21.7-21.7A21.726,21.726,0,0,1,26.183,294.2ZM41.578,184a2.422,2.422,0,0,1-2.127,1.047,9.367,9.367,0,0,1-3.256-.84,17.05,17.05,0,0,1-1.577,8.343,5.2,5.2,0,0,1,.518,3.079c-0.488,3.386-4.283,5.239-8.524,5.239s-8.018-1.853-8.479-5.239a5.161,5.161,0,0,1,.33-2.617,17.336,17.336,0,0,1-1.787-8.725,9.087,9.087,0,0,1-3.064.76A2.421,2.421,0,0,1,11.484,184a2.312,2.312,0,0,1-.162-2.214c0.812-1.912,3.593-2.743,4.75-3.012l0.1-.022c-1.4-2.9-.723-7.6-0.2-9.191l3.058,0.253c0.056,1,.766,2.881,3.436,5.01l1.586,1.092a12.208,12.208,0,0,1,4.685-.02l1.692-1.165c2.67-2.129,3.38-4.007,3.436-5.01l3.058-.254c0.529,1.6,1.207,6.342-.224,9.239l0.294,0.068c1.157,0.269,3.937,1.1,4.75,3.012A2.312,2.312,0,0,1,41.578,184ZM16.509,180.72s-2.859.663-3.362,1.845,3.155-.131,3.835-0.692A2.346,2.346,0,0,1,16.509,180.72Zm3.3,0.068c-1.752,2.755-1.577,7.007.468,11.373l0.366,0.781-0.317.8a3.172,3.172,0,0,0-.208,1.611c0.329,2.411,3.6,3.509,6.5,3.509s6.2-1.1,6.545-3.524a3.2,3.2,0,0,0-.33-1.905l-0.416-.84,0.379-.857c1.878-4.251,1.97-8.371.244-11.019-1.3-1.992-3.575-3.044-6.587-3.044C23.4,177.676,21.1,178.752,19.806,180.788ZM39.9,182.565c-0.5-1.183-3.361-1.846-3.361-1.846a2.341,2.341,0,0,1-.474,1.153C36.745,182.434,40.4,183.747,39.9,182.565Zm-18.57-6.1s-3.595-2.477-3.735-5.015c-0.4,2.175-.584,5.613.705,6.983A21.945,21.945,0,0,1,21.329,176.468Zm10.232-.094s3.595-2.476,3.735-5.015c0.4,2.175.584,5.614-.7,6.983A21.957,21.957,0,0,0,31.561,176.374ZM26.183,160.8a23.7,23.7,0,1,1-23.7,23.7A23.7,23.7,0,0,1,26.183,160.8Zm0,45.4a21.7,21.7,0,1,1,21.7-21.7A21.726,21.726,0,0,1,26.183,206.2Zm0.254-73.576s-22.24-10.188,0-32.75C48.677,122.437,26.437,132.625,26.437,132.625Zm7.516-17.188L27.416,119.6h0L27.4,123.28l6.894-4.408A13.425,13.425,0,0,0,33.953,115.437Zm-15.39,3.191,6.833,4.484v-3.621l-6.453-4.154A13.669,13.669,0,0,0,18.563,118.628Zm6.833-1.516v-3.636L21,110.1a22.081,22.081,0,0,0-1.464,3.24Zm0-6.088v-7.047A40,40,0,0,0,22.04,108.4Zm2,0.272,3.63-2.6A39.79,39.79,0,0,0,27.4,103.88V111.3Zm0.021,2.3h0L27.4,117.28l5.981-3.85a21.745,21.745,0,0,0-1.337-3.013Zm6.443,7.9-6.443,4.1h0L27.4,129.764A15.352,15.352,0,0,0,33.859,121.5ZM25.4,129.7v-4.2l-6.417-4.131C20.085,125.5,23.3,128.286,25.4,129.7Zm1.1-36.9A23.7,23.7,0,1,1,2.8,116.5,23.7,23.7,0,0,1,26.5,92.8Zm0,45.4a21.7,21.7,0,1,1,21.7-21.7A21.726,21.726,0,0,1,26.5,138.2ZM32.454,14.447a8.575,8.575,0,0,0-14.639,6.064V35.19a0.809,0.809,0,0,0,.809.809H34.157a0.809,0.809,0,0,0,.809-0.809V20.511A8.518,8.518,0,0,0,32.454,14.447Zm0.894,19.934H19.433V23.489c0.045,0.047.092,0.1,0.143,0.156a2.618,2.618,0,0,0,4.309,0,1.207,1.207,0,0,1,.946-0.6,1.061,1.061,0,0,1,.309.427,10.672,10.672,0,0,1,.488,1.226,9.72,9.72,0,0,0,.7,1.648,1.752,1.752,0,0,0,3.237,0,9.728,9.728,0,0,0,.7-1.648,10.6,10.6,0,0,1,.488-1.226,1.059,1.059,0,0,1,.309-0.427,1.208,1.208,0,0,1,.946.6,3.174,3.174,0,0,0,1.346,1v9.732Zm-9.006,8.58a2.049,2.049,0,0,0,4.1,0V36.8h-4.1v6.164ZM26.5,4.8A23.7,23.7,0,1,1,2.8,28.5,23.7,23.7,0,0,1,26.5,4.8Zm0,45.4A21.7,21.7,0,1,1,48.2,28.5,21.726,21.726,0,0,1,26.5,50.2Z" transform="translate(-2.469 -4.813)"/>
</svg>
